{
  "accessors": [
    {
      "name": "object001_1_0_positions",
      "componentType": 5126,
      "count": 8,
      "min": [
        -3.032399892807007,
        0,
        -1.281000018119812
      ],
      "max": [
        3.0517001152038574,
        2.5910000801086426,
        1.281000018119812
      ],
      "type": "VEC3",
      "bufferView": 0,
      "byteOffset": 0
    },
    {
      "name": "object001_1_0_normals",
      "componentType": 5126,
      "count": 8,
      "min": [
        -0.010200489312410355,
        0,
        -0.9999479651451111
      ],
      "max": [
        0.010200489312410355,
        0,
        0.9999479651451111
      ],
      "type": "VEC3",
      "bufferView": 1,
      "byteOffset": 0
    },
    {
      "name": "object001_1_0_texcoords",
      "componentType": 5126,
      "count": 8,
      "min": [
        0.002899999963119626,
        0
      ],
      "max": [
        0.9994999766349792,
        1
      ],
      "type": "VEC2",
      "bufferView": 2,
      "byteOffset": 0
    },
    {
      "name": "object001_1_0_indices",
      "componentType": 5123,
      "count": 12,
      "min": [
        0
      ],
      "max": [
        7
      ],
      "type": "SCALAR",
      "bufferView": 3,
      "byteOffset": 0
    },
    {
      "name": "object001_1_1_positions",
      "componentType": 5126,
      "count": 8,
      "min": [
        -3.032399892807007,
        0,
        -1.281000018119812
      ],
      "max": [
        3.0517001152038574,
        2.5910000801086426,
        1.281000018119812
      ],
      "type": "VEC3",
      "bufferView": 0,
      "byteOffset": 96
    },
    {
      "name": "object001_1_1_normals",
      "componentType": 5126,
      "count": 8,
      "min": [
        0,
        -1,
        0
      ],
      "max": [
        0,
        1,
        0
      ],
      "type": "VEC3",
      "bufferView": 1,
      "byteOffset": 96
    },
    {
      "name": "object001_1_1_texcoords",
      "componentType": 5126,
      "count": 8,
      "min": [
        0.0005000000237487257,
        0
      ],
      "max": [
        0.9994999766349792,
        1
      ],
      "type": "VEC2",
      "bufferView": 2,
      "byteOffset": 64
    },
    {
      "name": "object001_1_1_indices",
      "componentType": 5123,
      "count": 12,
      "min": [
        0
      ],
      "max": [
        7
      ],
      "type": "SCALAR",
      "bufferView": 3,
      "byteOffset": 24
    },
    {
      "name": "object001_1_2_positions",
      "componentType": 5126,
      "count": 4,
      "min": [
        3.027100086212158,
        0,
        -1.281000018119812
      ],
      "max": [
        3.0517001152038574,
        2.5910000801086426,
        1.156999945640564
      ],
      "type": "VEC3",
      "bufferView": 0,
      "byteOffset": 192
    },
    {
      "name": "object001_1_2_normals",
      "componentType": 5126,
      "count": 4,
      "min": [
        0.9999489784240723,
        0,
        -0.01010049507021904
      ],
      "max": [
        0.9999489784240723,
        0,
        -0.01010049507021904
      ],
      "type": "VEC3",
      "bufferView": 1,
      "byteOffset": 192
    },
    {
      "name": "object001_1_2_texcoords",
      "componentType": 5126,
      "count": 4,
      "min": [
        0.04839999973773956,
        0
      ],
      "max": [
        1,
        1
      ],
      "type": "VEC2",
      "bufferView": 2,
      "byteOffset": 128
    },
    {
      "name": "object001_1_2_indices",
      "componentType": 5123,
      "count": 6,
      "min": [
        0
      ],
      "max": [
        3
      ],
      "type": "SCALAR",
      "bufferView": 3,
      "byteOffset": 48
    },
    {
      "name": "object001_1_3_positions",
      "componentType": 5126,
      "count": 4,
      "min": [
        -3.032399892807007,
        0,
        -1.156999945640564
      ],
      "max": [
        -3.0078001022338867,
        2.5910000801086426,
        1.281000018119812
      ],
      "type": "VEC3",
      "bufferView": 0,
      "byteOffset": 240
    },
    {
      "name": "object001_1_3_normals",
      "componentType": 5126,
      "count": 4,
      "min": [
        -0.9999489784240723,
        0,
        0.01010049507021904
      ],
      "max": [
        -0.9999489784240723,
        0,
        0.01010049507021904
      ],
      "type": "VEC3",
      "bufferView": 1,
      "byteOffset": 240
    },
    {
      "name": "object001_1_3_texcoords",
      "componentType": 5126,
      "count": 4,
      "min": [
        0.04839999973773956,
        0
      ],
      "max": [
        1,
        1
      ],
      "type": "VEC2",
      "bufferView": 2,
      "byteOffset": 160
    },
    {
      "name": "object001_1_3_indices",
      "componentType": 5123,
      "count": 6,
      "min": [
        0
      ],
      "max": [
        3
      ],
      "type": "SCALAR",
      "bufferView": 3,
      "byteOffset": 60
    }
  ],
  "asset": {
    "generator": "obj2gltf",
    "version": "2.0"
  },
  "buffers": [
    {
      "name": "jizhuangxiang",
      "byteLength": 1375252,
      "uri": "data:application/octet-stream;base64,"
    }
  ],
  "bufferViews": [
    {
      "name": "bufferView_0",
      "buffer": 0,
      "byteLength": 288,
      "byteOffset": 0,
      "byteStride": 12,
      "target": 34962
    },
    {
      "name": "bufferView_1",
      "buffer": 0,
      "byteLength": 288,
      "byteOffset": 288,
      "byteStride": 12,
      "target": 34962
    },
    {
      "name": "bufferView_2",
      "buffer": 0,
      "byteLength": 192,
      "byteOffset": 576,
      "byteStride": 8,
      "target": 34962
    },
    {
      "name": "bufferView_3",
      "buffer": 0,
      "byteLength": 72,
      "byteOffset": 768,
      "target": 34963
    },
    {
      "buffer": 0,
      "byteOffset": 840,
      "byteLength": 255861
    },
    {
      "buffer": 0,
      "byteOffset": 256701,
      "byteLength": 25543
    },
    {
      "buffer": 0,
      "byteOffset": 282244,
      "byteLength": 410809
    },
    {
      "buffer": 0,
      "byteOffset": 693053,
      "byteLength": 682197
    }
  ],
  "images": [
    {
      "name": "IMG_1",
      "mimeType": "image/jpeg",
      "bufferView": 4
    },
    {
      "name": "26",
      "mimeType": "image/jpeg",
      "bufferView": 5
    },
    {
      "name": "IMG_1112",
      "mimeType": "image/jpeg",
      "bufferView": 6
    },
    {
      "name": "IMG_1148",
      "mimeType": "image/jpeg",
      "bufferView": 7
    }
  ],
  "materials": [
    {
      "name": "Material__1703",
      "pbrMetallicRoughness": {
        "baseColorTexture": {
          "index": 0
        },
        "baseColorFactor": [
          1,
          1,
          1,
          1
        ],
        "metallicFactor": 0,
        "roughnessFactor": 0.99
      },
      "emissiveFactor": [
        0,
        0,
        0
      ],
      "alphaMode": "OPAQUE",
      "doubleSided": false
    },
    {
      "name": "Material__17035",
      "pbrMetallicRoughness": {
        "baseColorTexture": {
          "index": 1
        },
        "baseColorFactor": [
          1,
          1,
          1,
          1
        ],
        "metallicFactor": 0,
        "roughnessFactor": 0.99
      },
      "emissiveFactor": [
        0,
        0,
        0
      ],
      "alphaMode": "OPAQUE",
      "doubleSided": false
    },
    {
      "name": "Material__3145",
      "pbrMetallicRoughness": {
        "baseColorTexture": {
          "index": 2
        },
        "baseColorFactor": [
          1,
          1,
          1,
          1
        ],
        "metallicFactor": 0,
        "roughnessFactor": 0.99
      },
      "emissiveFactor": [
        0,
        0,
        0
      ],
      "alphaMode": "OPAQUE",
      "doubleSided": false
    },
    {
      "name": "Material__20",
      "pbrMetallicRoughness": {
        "baseColorTexture": {
          "index": 3
        },
        "baseColorFactor": [
          1,
          1,
          1,
          1
        ],
        "metallicFactor": 0,
        "roughnessFactor": 0.99
      },
      "emissiveFactor": [
        0,
        0,
        0
      ],
      "alphaMode": "OPAQUE",
      "doubleSided": false
    }
  ],
  "meshes": [
    {
      "name": "object001_1",
      "primitives": [
        {
          "attributes": {
            "POSITION": 0,
            "NORMAL": 1,
            "TEXCOORD_0": 2
          },
          "indices": 3,
          "material": 0,
          "mode": 4
        },
        {
          "attributes": {
            "POSITION": 4,
            "NORMAL": 5,
            "TEXCOORD_0": 6
          },
          "indices": 7,
          "material": 1,
          "mode": 4
        },
        {
          "attributes": {
            "POSITION": 8,
            "NORMAL": 9,
            "TEXCOORD_0": 10
          },
          "indices": 11,
          "material": 2,
          "mode": 4
        },
        {
          "attributes": {
            "POSITION": 12,
            "NORMAL": 13,
            "TEXCOORD_0": 14
          },
          "indices": 15,
          "material": 3,
          "mode": 4
        }
      ]
    }
  ],
  "nodes": [
    {
      "name": "object001",
      "mesh": 0
    }
  ],
  "samplers": [
    {
      "magFilter": 9729,
      "minFilter": 9986,
      "wrapS": 10497,
      "wrapT": 10497
    }
  ],
  "scene": 0,
  "scenes": [
    {
      "nodes": [
        0
      ]
    }
  ],
  "textures": [
    {
      "name": "IMG_1",
      "sampler": 0,
      "source": 0
    },
    {
      "name": "26",
      "sampler": 0,
      "source": 1
    },
    {
      "name": "IMG_1112",
      "sampler": 0,
      "source": 2
    },
    {
      "name": "IMG_1148",
      "sampler": 0,
      "source": 3
    }
  ]
}
