{
  "accessors": [
    {
      "name": "Object868_1_0_positions",
      "componentType": 5126,
      "count": 53427,
      "min": [
        -5.547347068786621,
        0,
        -5.547344207763672
      ],
      "max": [
        5.547342777252197,
        55.61904525756836,
        5.547346115112305
      ],
      "type": "VEC3",
      "bufferView": 0,
      "byteOffset": 0
    },
    {
      "name": "Object868_1_0_texcoords",
      "componentType": 5126,
      "count": 53427,
      "min": [
        0.006000000052154064,
        0.006000000052154064
      ],
      "max": [
        0.9913769960403442,
        0.9984830021858215
      ],
      "type": "VEC2",
      "bufferView": 1,
      "byteOffset": 0
    },
    {
      "name": "Object868_1_0_indices",
      "componentType": 5123,
      "count": 163206,
      "min": [
        0
      ],
      "max": [
        53426
      ],
      "type": "SCALAR",
      "bufferView": 2,
      "byteOffset": 0
    },
    {
      "name": "Object868_1_1_positions",
      "componentType": 5126,
      "count": 8967,
      "min": [
        -2.139223098754883,
        47.41091537475586,
        -2.2021470069885254
      ],
      "max": [
        2.1344099044799805,
        48.11664581298828,
        1.5212370157241821
      ],
      "type": "VEC3",
      "bufferView": 0,
      "byteOffset": 641124
    },
    {
      "name": "Object868_1_1_texcoords",
      "componentType": 5126,
      "count": 8967,
      "min": [
        -0.14925499260425568,
        -0.3367519974708557
      ],
      "max": [
        1,
        1.425881028175354
      ],
      "type": "VEC2",
      "bufferView": 1,
      "byteOffset": 427416
    },
    {
      "name": "Object868_1_1_indices",
      "componentType": 5123,
      "count": 42318,
      "min": [
        0
      ],
      "max": [
        8966
      ],
      "type": "SCALAR",
      "bufferView": 2,
      "byteOffset": 326412
    }
  ],
  "asset": {
    "generator": "obj2gltf",
    "version": "2.0"
  },
  "buffers": [
    {
      "name": "ludeng",
      "byteLength": 2136692,
      "uri": "data:application/octet-stream;base64,"
    }
  ],
  "bufferViews": [
    {
      "name": "bufferView_0",
      "buffer": 0,
      "byteLength": 748728,
      "byteOffset": 0,
      "byteStride": 12,
      "target": 34962
    },
    {
      "name": "bufferView_1",
      "buffer": 0,
      "byteLength": 499152,
      "byteOffset": 748728,
      "byteStride": 8,
      "target": 34962
    },
    {
      "name": "bufferView_2",
      "buffer": 0,
      "byteLength": 411048,
      "byteOffset": 1247880,
      "target": 34963
    },
    {
      "buffer": 0,
      "byteOffset": 1658928,
      "byteLength": 470877
    },
    {
      "buffer": 0,
      "byteOffset": 2129805,
      "byteLength": 6884
    }
  ],
  "images": [
    {
      "name": "base color",
      "mimeType": "image/png",
      "bufferView": 3
    },
    {
      "name": "bai",
      "mimeType": "image/png",
      "bufferView": 4
    }
  ],
  "materials": [
    {
      "name": "Material__423",
      "pbrMetallicRoughness": {
        "baseColorTexture": {
          "index": 0
        },
        "baseColorFactor": [
          1,
          1,
          1,
          1
        ],
        "metallicFactor": 0,
        "roughnessFactor": 0.990000001
      },
      "emissiveFactor": [
        0,
        0,
        0
      ],
      "alphaMode": "OPAQUE",
      "doubleSided": false
    },
    {
      "name": "02___Default",
      "pbrMetallicRoughness": {
        "baseColorTexture": {
          "index": 1
        },
        "baseColorFactor": [
          1,
          1,
          1,
          1
        ],
        "metallicFactor": 0,
        "roughnessFactor": 0.990000001
      },
      "emissiveFactor": [
        0,
        0,
        0
      ],
      "alphaMode": "OPAQUE",
      "doubleSided": false
    }
  ],
  "meshes": [
    {
      "name": "Object868_1",
      "primitives": [
        {
          "attributes": {
            "POSITION": 0,
            "TEXCOORD_0": 1
          },
          "indices": 2,
          "material": 0,
          "mode": 4
        },
        {
          "attributes": {
            "POSITION": 3,
            "TEXCOORD_0": 4
          },
          "indices": 5,
          "material": 1,
          "mode": 4
        }
      ]
    }
  ],
  "nodes": [
    {
      "name": "Object868",
      "mesh": 0
    }
  ],
  "samplers": [
    {
      "magFilter": 9729,
      "minFilter": 9986,
      "wrapS": 10497,
      "wrapT": 10497
    }
  ],
  "scene": 0,
  "scenes": [
    {
      "nodes": [
        0
      ]
    }
  ],
  "textures": [
    {
      "name": "base color",
      "sampler": 0,
      "source": 0
    },
    {
      "name": "bai",
      "sampler": 0,
      "source": 1
    }
  ]
}
